<?xml version="1.0" encoding="UTF-8"?>
<svg id="Layer_2" data-name="Layer 2" xmlns="http://www.w3.org/2000/svg" viewBox="0 0 1100 1763.01">
  <defs>
    <style>
      .cls-1, .cls-2, .cls-3, .cls-4, .cls-5, .cls-6 {
        stroke: #1b1b1b;
      }

      .cls-1, .cls-2, .cls-3, .cls-4, .cls-5, .cls-6, .cls-7 {
        stroke-miterlimit: 10;
      }

      .cls-1, .cls-2, .cls-3, .cls-4, .cls-6 {
        stroke-width: 100px;
      }

      .cls-1, .cls-8 {
        fill: #56494e;
      }

      .cls-2, .cls-9 {
        fill: #71ab4e;
      }

      .cls-3, .cls-10 {
        fill: #db324d;
      }

      .cls-4, .cls-11 {
        fill: #f49e4c;
      }

      .cls-5 {
        fill: #f3f3f3;
        stroke-width: 10px;
      }

      .cls-6, .cls-7 {
        fill: none;
      }

      .cls-7 {
        stroke: #f3f3f3;
        stroke-width: 20px;
      }
    </style>
  </defs>
  <g id="Layer_1-2" data-name="Layer 1">
    <g>
      <g>
        <path class="cls-4" d="M50,846.26h1000v145.21c0,57.83-46.95,104.79-104.79,104.79H154.79c-57.83,0-104.79-46.95-104.79-104.79v-145.21h0Z"/>
        <rect class="cls-1" x="50" y="691.26" width="1000" height="125"/>
        <rect class="cls-2" x="50" y="536.26" width="1000" height="125"/>
        <rect class="cls-3" x="50" y="381.26" width="1000" height="125"/>
        <path class="cls-4" d="M154.79,101.26H945.21c57.83,0,104.79,46.95,104.79,104.79v145.21H50V206.05c0-57.83,46.95-104.79,104.79-104.79Z"/>
        <path class="cls-6" d="M574.43,1143.87c-92.34,14.58-158.58-14.06-203.35-54.71-45.07-41.34-68.68-94.67-82.58-145.44-13.79-51.26-17.86-99.97-21.33-143.28-2.96-43.6-5.31-81.81-3.83-118.65,2.01-198.11,4.03-396.22,6.04-594.34,.2-29.81,11.51-41.13,36.99-36.43,53.15,10.24,106.35,21.99,159.38,34.21,25.29,5.83,35.79,24.18,34.43,59.89-8.51,217.14-17.02,434.28-25.53,651.41-.68,19.38,2.19,36.83,16.84,51.13,14.66,13.89,41.1,24.64,87.87,20.98,47.44-4.82,74.29-20.24,89.25-36.01,14.95-16.24,18.03-32.82,17.62-50.79-5.6-200.72-11.21-401.43-16.81-602.15-.89-33.14,8.71-45.38,34.51-39.68,50.33,10.82,100.17,20.58,149.32,28.3,24.32,4.03,35,14.7,35.19,35.7,1.78,140.1,3.56,280.19,5.34,420.29,1.42,25.95-1.05,55.01-4.4,92.26-3.86,37.03-8.6,82.24-23.37,135.51-14.87,52.75-39.75,113.55-86,169.96-45.93,55.61-113.23,106.83-205.57,121.84Z"/>
      </g>
      <g>
        <path class="cls-11" d="M50,846.26h1000v145.21c0,57.83-46.95,104.79-104.79,104.79H154.79c-57.83,0-104.79-46.95-104.79-104.79v-145.21h0Z"/>
        <rect class="cls-8" x="50" y="691.26" width="1000" height="125"/>
        <rect class="cls-9" x="50" y="536.26" width="1000" height="125"/>
        <rect class="cls-10" x="50" y="381.26" width="1000" height="125"/>
        <path class="cls-11" d="M154.79,101.26H945.21c57.83,0,104.79,46.95,104.79,104.79v145.21H50V206.05c0-57.83,46.95-104.79,104.79-104.79Z"/>
        <path class="cls-7" d="M574.43,1143.87c-92.34,14.58-158.58-14.06-203.35-54.71-45.07-41.34-68.68-94.67-82.58-145.44-13.79-51.26-17.86-99.97-21.33-143.28-2.96-43.6-5.31-81.81-3.83-118.65,2.01-198.11,4.03-396.22,6.04-594.34,.2-29.81,11.51-41.13,36.99-36.43,53.15,10.24,106.35,21.99,159.38,34.21,25.29,5.83,35.79,24.18,34.43,59.89-8.51,217.14-17.02,434.28-25.53,651.41-.68,19.38,2.19,36.83,16.84,51.13,14.66,13.89,41.1,24.64,87.87,20.98,47.44-4.82,74.29-20.24,89.25-36.01,14.95-16.24,18.03-32.82,17.62-50.79-5.6-200.72-11.21-401.43-16.81-602.15-.89-33.14,8.71-45.38,34.51-39.68,50.33,10.82,100.17,20.58,149.32,28.3,24.32,4.03,35,14.7,35.19,35.7,1.78,140.1,3.56,280.19,5.34,420.29,1.42,25.95-1.05,55.01-4.4,92.26-3.86,37.03-8.6,82.24-23.37,135.51-14.87,52.75-39.75,113.55-86,169.96-45.93,55.61-113.23,106.83-205.57,121.84Z"/>
      </g>
      <g>
        <path class="cls-5" d="M125.26,1458.01c-62,0-77.25-20.5-77.25-51v-123.75c0-6.25,2.75-9,9-9h39.25c6.25,0,9,2.75,9,9v114c0,6.75,3,11.75,20.5,11.75s20.75-5,20.75-11.75v-114c0-6.25,2.5-9,9-9h38c6.25,0,9,2.75,9,9v123.75c0,30.5-15.25,51-77.25,51Z"/>
        <path class="cls-5" d="M280.25,1454.26c-6.25,0-9-2.75-9-9v-122.75h-36.75c-6.25,0-9-2.75-9-9v-30.25c0-6.25,2.75-9,9-9h132c6.25,0,9,2.75,9,9v30.25c0,6.25-2.75,9-9,9h-36.75v122.75c0,6.25-2.75,9-9,9h-40.5Z"/>
        <path class="cls-5" d="M473.5,1458.01c-62.5,0-77.75-20.5-77.75-51v-85.25c0-30.5,15.25-51.25,77.75-51.25s77.5,20.75,77.5,51.25v85.25c0,30.5-15,51-77.5,51Zm0-48.25c18.25,0,21-5,21-11.75v-67.25c0-6.5-2.75-11.5-21-11.5s-21,5-21,11.5v67.25c0,6.75,3,11.75,21,11.75Z"/>
        <path class="cls-5" d="M591.75,1454.26c-6.25,0-9-2.75-9-9v-162c0-6.25,2.75-9,9-9h76.5c45.5,0,59,19.75,59,48.75v32c0,29-13.5,48.75-59,48.75h-28.75v41.5c0,6.25-2.75,9-9,9h-38.75Zm47.25-95.5h22.5c9.75,0,11.75-5.75,11.75-12.25v-13.25c0-6.5-2-12.25-11.75-12.25h-22.5v37.75Z"/>
        <path class="cls-5" d="M749.25,1445.26v-29.75c0-6.25,2.75-9,9-9h24.75v-84h-24.75c-6.25,0-9-2.75-9-9v-30.25c0-6.25,2.75-9,9-9h106.5c6.25,0,9,2.75,9,9v30.25c0,6.25-2.75,9-9,9h-24.25v84h24.25c6.25,0,9,2.75,9,9v29.75c0,6.25-2.75,9-9,9h-106.5c-6.25,0-9-2.75-9-9Z"/>
        <path class="cls-5" d="M946.5,1454.26h-36.75c-6.25,0-9-2.75-9-9v-66c0-10,3-22.5,9.75-40l21.75-56.75c2-5.75,6-8.25,12.75-8.25h67.25c6.5,0,10.5,2.5,12.5,8.25l21.75,56.75c6.75,17.5,9.75,30,9.75,40v66c0,6.25-2.75,9-9,9h-37.75c-6.75,0-9.75-2.75-9.75-9v-35h-44.25v35c0,6.25-2.75,9-9,9Zm11.5-89.5h39.25l-11.75-38c-1.25-3-2.75-4.25-4.75-4.25h-6.25c-2,0-3.5,1.25-4.75,4.25l-11.75,38Z"/>
        <path class="cls-5" d="M48.26,1754.26c-6.25,0-9-2.75-9-9v-162c0-6.25,2.75-9,9-9h79.75c32.75,0,48,12,48,38.25v12c0,14-4.75,22.75-14.75,27,21.5,2,31.5,14.25,31.5,38.75v23c0,28-15.25,41-48.5,41H48.26Zm47.25-110.5h21.25c6.5,0,9.5-3.25,9.5-10v-7c0-6.75-3-10-9.5-10h-21.25v27Zm0,68h32.5c6.5,0,9.5-3.25,9.5-10v-9.75c0-6.75-3-9.75-9.5-9.75h-32.5v29.5Z"/>
        <path class="cls-5" d="M296.51,1758.01c-62,0-77.25-20.5-77.25-51v-123.75c0-6.25,2.75-9,9-9h39.25c6.25,0,9,2.75,9,9v114c0,6.75,3,11.75,20.5,11.75s20.75-5,20.75-11.75v-114c0-6.25,2.5-9,9-9h38c6.25,0,9,2.75,9,9v123.75c0,30.5-15.25,51-77.25,51Z"/>
        <path class="cls-5" d="M465.75,1754.26c-42,0-61.5-16.25-61.5-51v-78c0-34.75,19.5-51,61.5-51h62.5c6.25,0,9,2.75,9,9v30.25c0,6.25-2.75,9-9,9h-52c-10.5,0-15.25,4-15.25,12.5v59.75c0,8.5,3.75,12.25,11.5,12.25h24.25v-39c0-6.25,2.75-9,9-9h38.75c6.25,0,9,2.75,9,9v77.25c0,6.25-2.75,9-9,9h-78.75Z"/>
        <path class="cls-5" d="M593,1754.26c-6.25,0-9-2.75-9-9v-162c0-6.25,2.75-9,9-9h116c6.25,0,9,2.75,9,9v29.25c0,6.25-2.75,9-9,9h-69v19.25h48.75c6.25,0,9,2.75,9,9v26.75c0,6.25-2.75,9-9,9h-48.75v21.5h69c6.25,0,9,2.75,9,9v29.25c0,6.25-2.75,9-9,9h-116Z"/>
        <path class="cls-5" d="M756.5,1754.26c-6.25,0-9-2.75-9-9v-162c0-6.25,2.75-9,9-9h83.25c37.5,0,49.25,17,49.25,41.75v11.5c0,14-3.5,24-14,28.5,18.25,2,30.25,15.25,30.25,36.25v53c0,6.25-2.75,9-9,9h-38.75c-6.25,0-9-2.75-9-9v-38.25c0-7.5-2.5-10.75-9.5-10.75h-35v49c0,6.25-2.75,9-9,9h-38.5Zm47.5-103h18.75c8.75,0,11-5,11-11.75v-8.5c0-6.75-2.25-11.75-11-11.75h-18.75v32Z"/>
        <path class="cls-5" d="M937.75,1754.26c-6.25,0-9-2.75-9-9v-29.25c0-6.25,2.75-9,9-9h67.25c4.25,0,6.5-3.25,6.5-7.25,0-5.75-2.25-8-6.5-8.5l-37.5-5.25c-23.5-3.5-38.75-13.5-38.75-41.5v-26.25c0-28.5,19.25-44,51.75-44h70c6.25,0,9,2.75,9,9v29.75c0,6.25-2.75,9-9,9h-58.25c-4.25,0-6.75,3-6.75,7.5s2.5,7.5,6.75,8l37.25,5c23.5,3.5,39,13.5,39,41.5v26.25c0,28.5-19.5,44-51.75,44h-79Z"/>
      </g>
    </g>
  </g>
</svg>